<svg xmlns="http://www.w3.org/2000/svg" xml:space="preserve" viewBox="0 0 25.429 20.234">
  <path fill="#80ffdb" d="m13.18 4.213 4.438 2.406a.89.89 0 0 1 .465.782v1.852a.53.53 0 0 0 .53.529h.636a2 2 0 0 0 .99-.26l4.729-2.656a.9.9 0 0 0 .46-.788V3.664a.653.653 0 0 0-.928-.59l-2.547 1.192a1.06 1.06 0 0 1-.947-.023L13.183.115a1 1 0 0 0-.934.003L4.662 4.179a.88.88 0 0 0-.467.78l-.002 2.169a.53.53 0 0 0 .528.529h.612a1.1 1.1 0 0 0 .513-.126l6.4-3.326a1 1 0 0 1 .935.008"/>
  <path fill="#a8b1ff" d="m12.248 16.021-4.437-2.406a.89.89 0 0 1-.465-.781v-1.852a.53.53 0 0 0-.53-.53H6.18a2 2 0 0 0-.99.26L.46 13.368a.9.9 0 0 0-.461.789v2.413a.653.653 0 0 0 .93.591l2.546-1.193a1.06 1.06 0 0 1 .947.023l7.822 4.128a1 1 0 0 0 .935-.003l7.587-4.061a.88.88 0 0 0 .467-.779l.002-2.17a.53.53 0 0 0-.528-.528h-.612a1.1 1.1 0 0 0-.513.125l-6.4 3.326a1 1 0 0 1-.935-.008"/>
</svg>
