<?xml version="1.0" encoding="UTF-8" standalone="no"?>
<!-- Created with Inkscape (http://www.inkscape.org/) -->

<svg
   width="25.428923mm"
   height="20.234232mm"
   viewBox="0 0 25.428923 20.234232"
   version="1.1"
   id="svg1"
   xml:space="preserve"
   inkscape:version="1.4.4 (dcaf3e7d9e, 2026-05-05)"
   sodipodi:docname="linebridge_alt.svg"
   inkscape:export-filename="linebridge_alt.svg"
   inkscape:export-xdpi="96"
   inkscape:export-ydpi="96"
   xmlns:inkscape="http://www.inkscape.org/namespaces/inkscape"
   xmlns:sodipodi="http://sodipodi.sourceforge.net/DTD/sodipodi-0.dtd"
   xmlns="http://www.w3.org/2000/svg"
   xmlns:svg="http://www.w3.org/2000/svg"><sodipodi:namedview
     id="namedview1"
     pagecolor="#ffffff"
     bordercolor="#000000"
     borderopacity="0.25"
     inkscape:showpageshadow="2"
     inkscape:pageopacity="0.0"
     inkscape:pagecheckerboard="0"
     inkscape:deskcolor="#d1d1d1"
     inkscape:document-units="mm"
     inkscape:export-bgcolor="#ffffff00"
     showguides="false"
     showgrid="false"
     inkscape:zoom="5.6568543"
     inkscape:cx="388.3784"
     inkscape:cy="398.80822"
     inkscape:window-width="1904"
     inkscape:window-height="1024"
     inkscape:window-x="0"
     inkscape:window-y="0"
     inkscape:window-maximized="0"
     inkscape:current-layer="layer1"><inkscape:grid
       id="grid36"
       units="mm"
       originx="-99.227341"
       originy="-99.886284"
       spacingx="0.99999998"
       spacingy="1"
       empcolor="#0099e5"
       empopacity="0.30196078"
       color="#0099e5"
       opacity="0.14901961"
       empspacing="5"
       enabled="true"
       visible="false" /><sodipodi:guide
       position="25.429371,15.611774"
       orientation="1,0"
       id="guide37"
       inkscape:locked="false" /><sodipodi:guide
       position="12.668191,3.4806044"
       orientation="1,0"
       id="guide42"
       inkscape:locked="false" /><sodipodi:guide
       position="0.7619404,2.9532543"
       orientation="1,0"
       id="guide43"
       inkscape:locked="false" /><sodipodi:guide
       position="12.668191,4.1995144"
       orientation="0,-1"
       id="guide44"
       inkscape:locked="false" /><sodipodi:guide
       position="5.6051505,10.020354"
       orientation="1,0"
       id="guide47"
       inkscape:locked="false" /><sodipodi:guide
       position="19.778951,10.452404"
       orientation="1,0"
       id="guide48"
       inkscape:locked="false" /><inkscape:page
       x="-1.9905039e-37"
       y="0"
       width="25.428923"
       height="20.234232"
       id="page2"
       margin="0"
       bleed="0" /></sodipodi:namedview><defs
     id="defs1"><inkscape:path-effect
       effect="fillet_chamfer"
       id="path-effect51"
       is_visible="true"
       lpeversion="1"
       nodesatellites_param="F,0,0,1,0,0.52916665,0,1 @ F,0,0,1,0,0.52916665,0,1 @ F,0,0,1,0,0.52916665,0,1 @ F,0,0,1,0,0.52916665,0,1 @ F,0,0,1,0,0.52916665,0,1 @ F,0,0,1,0,1.0261,0,1 @ F,0,0,1,0,0.52916665,0,1 @ F,0,0,1,0,0.52916665,0,1 @ F,0,0,1,0,0.52916665,0,1 @ F,0,0,1,0,0.52916665,0,1 @ F,0,0,1,0,0.2721,0,1"
       radius="2"
       unit="px"
       method="auto"
       mode="F"
       chamfer_steps="1"
       flexible="false"
       use_knot_distance="true"
       apply_no_radius="true"
       apply_with_radius="true"
       only_selected="false"
       hide_knots="false" /><inkscape:path-effect
       effect="fillet_chamfer"
       id="path-effect48"
       is_visible="true"
       lpeversion="1"
       nodesatellites_param="F,0,0,1,0,0.52916665,0,1 @ F,0,0,1,0,0.52916665,0,1 @ F,0,0,1,0,0.52916665,0,1 @ F,0,0,1,0,0.52916665,0,1 @ F,0,0,1,0,0.52916665,0,1 @ F,0,0,1,0,1.0261,0,1 @ F,0,0,1,0,0.52916665,0,1 @ F,0,0,1,0,0.52916665,0,1 @ F,0,0,1,0,0.52916665,0,1 @ F,0,0,1,0,0.52916665,0,1 @ F,0,0,1,0,0.2721,0,1"
       radius="2"
       unit="px"
       method="auto"
       mode="F"
       chamfer_steps="1"
       flexible="false"
       use_knot_distance="true"
       apply_no_radius="true"
       apply_with_radius="true"
       only_selected="false"
       hide_knots="false" /></defs><g
     inkscape:label="Layer 1"
     inkscape:groupmode="layer"
     id="layer1"
     transform="translate(-99.227339,-99.886284)"><path
       style="display:inline;fill:#80ffdb;fill-opacity:1;stroke-width:0.273405"
       inkscape:path-effect="#path-effect51"
       inkscape:original-d="m 111.9428,103.84729 5.36791,2.91041 v 2.91042 h 1.69513 l 5.65042,-3.175 v -3.96875 l -3.95531,1.85209 -8.75815,-4.622186 -8.52036,4.560736 -0.003,3.22773 h 1.4126 z"
       d="m 112.40799,104.09951 4.43753,2.40597 a 0.88884827,0.88884827 59.232983 0 1 0.46519,0.78139 v 1.85208 a 0.52916665,0.52916665 45 0 0 0.52917,0.52917 h 0.63679 a 2.0219613,2.0219613 165.33407 0 0 0.9905,-0.25922 l 4.72776,-2.65656 a 0.90432522,0.90432522 120.33407 0 0 0.46133,-0.78839 v -2.41348 a 0.65254609,0.65254609 32.454233 0 0 -0.92927,-0.59097 l -2.54681,1.19256 a 1.0633242,1.0633242 1.3658436 0 1 -0.94722,-0.0226 l -7.82217,-4.12821 a 0.99558966,0.99558966 179.8321 0 0 -0.93453,0.003 l -7.58728,4.06129 a 0.88438819,0.88438819 120.94711 0 0 -0.46703,0.77889 l -0.002,2.16939 a 0.52867505,0.52867505 45.026627 0 0 0.52868,0.52917 h 0.61133 a 1.1136298,1.1136298 166.26959 0 0 0.51354,-0.12548 l 6.39978,-3.32595 a 0.99675347,0.99675347 0.50257067 0 1 0.93473,0.008 z"
       id="path50" /><path
       style="display:inline;fill:#a8b1ff;fill-opacity:1;stroke-width:0.273405"
       inkscape:path-effect="#path-effect48"
       inkscape:original-d="m 111.9408,116.1595 -5.36791,-2.91041 v -2.91042 h -1.69513 l -5.65042,3.175 v 3.96875 l 3.95531,-1.85209 8.75815,4.62219 8.52036,-4.56074 0.003,-3.22773 h -1.4126 z"
       d="m 111.47561,115.90728 -4.43753,-2.40597 a 0.88884827,0.88884827 59.232983 0 1 -0.46519,-0.78139 v -1.85208 a 0.52916665,0.52916665 45 0 0 -0.52917,-0.52917 h -0.63679 a 2.0219613,2.0219613 165.33407 0 0 -0.9905,0.25922 l -4.727764,2.65656 a 0.90432522,0.90432522 120.33407 0 0 -0.461326,0.78839 v 2.41348 a 0.65254609,0.65254609 32.454233 0 0 0.92927,0.59097 l 2.54681,-1.19256 a 1.0633238,1.0633238 1.3658539 0 1 0.94722,0.0226 l 7.82217,4.12821 a 0.99558879,0.99558879 179.83209 0 0 0.93452,-0.003 l 7.5873,-4.0613 a 0.88438856,0.88438856 120.9471 0 0 0.46702,-0.77889 l 0.002,-2.16939 a 0.52867505,0.52867505 45.026627 0 0 -0.52868,-0.52917 h -0.61133 a 1.1136298,1.1136298 166.26959 0 0 -0.51354,0.12548 l -6.39978,3.32595 a 0.99675347,0.99675347 0.50257067 0 1 -0.93473,-0.008 z"
       id="path48" /></g></svg>
